<svg width="1519" height="495" viewBox="0 0 1519 495" fill="none" xmlns="http://www.w3.org/2000/svg">
<path d="M0 488.848V140.923H57.988V204.979C69.226 182.953 84.172 165.815 102.827 153.566C121.482 141.316 142.721 135.192 166.546 135.192C190.595 135.192 210.711 141.541 226.893 154.24C243.076 166.939 253.977 184.751 259.596 207.676C271.957 184.751 287.859 166.939 307.3 154.24C326.742 141.541 348.6 135.192 372.874 135.192C404.34 135.192 428.557 144.8 445.527 164.017C462.496 183.234 470.98 209.811 470.98 243.75V488.848H412.993V256.224C412.993 233.748 408.273 216.723 398.833 205.148C389.393 193.573 375.458 187.785 357.028 187.785C330.731 187.785 308.761 201.889 291.118 230.096C273.474 258.303 264.653 296.905 264.653 345.902V488.848H206.665V256.224C206.665 233.748 201.945 216.723 192.505 205.148C183.066 193.573 169.131 187.785 150.7 187.785C124.404 187.785 102.377 201.889 84.622 230.096C66.866 258.303 57.988 296.905 57.988 345.902V488.848H0V488.848ZM486.768 314.886C486.768 291.286 490.083 268.81 496.713 247.458C503.344 226.106 513.008 207.002 525.707 190.145C538.406 173.288 554.926 159.915 575.266 150.026C595.607 140.136 618.588 135.192 644.211 135.192C669.159 135.192 691.747 139.743 711.975 148.846C732.203 157.949 748.723 170.198 761.534 185.594C774.346 200.99 784.179 218.521 791.034 238.187C797.889 257.853 801.316 278.587 801.316 300.389V327.36H546.104C547.902 361.073 557.173 388.606 573.918 409.958C590.662 431.31 614.093 441.986 644.211 441.986C668.709 441.986 688.376 436.536 703.21 425.635C718.044 414.734 730.518 398.046 740.632 375.57L791.877 397.821C775.694 431.76 756.028 456.315 732.878 471.486C709.728 486.657 680.172 494.243 644.211 494.243C618.588 494.243 595.607 489.298 575.266 479.409C554.926 469.519 538.406 456.146 525.707 439.289C513.008 422.432 503.344 403.384 496.713 382.145C490.083 360.905 486.768 338.485 486.768 314.886V314.886ZM549.475 274.766H740.632C735.013 248.245 724.225 227.118 708.267 211.385C692.309 195.652 670.957 187.785 644.211 187.785C618.364 187.785 597.461 195.595 581.503 211.216C565.545 226.837 554.869 248.02 549.475 274.766V274.766ZM782.368 193.179V140.923H842.378V36.748L900.366 0V140.923H991.73V193.179H900.366V384.673C900.366 403.103 904.468 417.263 912.671 427.152C920.875 437.042 932.281 441.986 946.891 441.986C961.949 441.986 974.985 438.278 985.998 430.861L999.821 481.094C984.987 489.86 966.107 494.243 943.182 494.243C912.615 494.243 888.173 484.634 869.855 465.417C851.537 446.201 842.378 417.6 842.378 379.616V193.179H782.368V193.179Z" fill="#1A1A1A"/>
<path d="M982.908 314.886C982.908 291.286 986.223 268.81 992.854 247.458C999.484 226.106 1009.15 207.002 1021.85 190.145C1034.55 173.288 1051.07 159.915 1071.41 150.026C1091.75 140.136 1114.73 135.192 1140.35 135.192C1165.3 135.192 1187.89 139.743 1208.12 148.846C1228.34 157.949 1244.86 170.198 1257.67 185.594C1270.49 200.99 1280.32 218.521 1287.17 238.187C1294.03 257.853 1297.46 278.587 1297.46 300.389V327.36H1042.24C1044.04 361.073 1053.31 388.606 1070.06 409.958C1086.8 431.31 1110.23 441.986 1140.35 441.986C1164.85 441.986 1184.52 436.536 1199.35 425.635C1214.18 414.734 1226.66 398.046 1236.77 375.57L1288.02 397.821C1271.83 431.76 1252.17 456.315 1229.02 471.486C1205.87 486.657 1176.31 494.243 1140.35 494.243C1114.73 494.243 1091.75 489.298 1071.41 479.409C1051.07 469.519 1034.55 456.146 1021.85 439.289C1009.15 422.432 999.484 403.384 992.854 382.145C986.223 360.905 982.908 338.485 982.908 314.886ZM1045.62 274.766H1236.77C1231.15 248.245 1220.36 227.118 1204.41 211.385C1188.45 195.652 1167.1 187.785 1140.35 187.785C1114.5 187.785 1093.6 195.595 1077.64 211.216C1061.69 226.837 1051.01 248.02 1045.62 274.766V274.766ZM1310.88 488.848V140.923H1368.87V200.259C1378.98 181.155 1393.7 165.534 1413.03 153.397C1432.36 141.26 1451.8 135.192 1471.35 135.192C1489.56 135.192 1505.41 138.676 1518.89 145.643L1507.09 197.562C1493.61 191.044 1480.01 187.785 1466.3 187.785C1454.16 187.785 1442.36 191.381 1430.9 198.574C1419.44 205.766 1409.04 216.105 1399.71 229.59C1390.39 243.076 1382.91 260.888 1377.29 283.026C1371.68 305.165 1368.87 329.832 1368.87 357.028V488.848H1310.88Z" fill="#1A1A1A"/>
</svg>
