<svg xmlns="http://www.w3.org/2000/svg" width="129.469" height="21.607"><path fill="#34424b" d="M13.18 8.56v4.36a8.66 8.66 0 0 0 8.43 8.7 8.57 8.57 0 0 0 8.54-7.84c.07-.65.1-2.32.1-2.98s-.03-2.32-.1-2.97a8.54 8.54 0 0 0-13.6-6.15.23.23 0 0 0 0 .3l1.78 2.96a.18.18 0 0 0 .28.03 4.7 4.7 0 0 1 7.68 2.9 35.53 35.53 0 0 1 0 5.8 4.7 4.7 0 0 1-4.66 4.07 4.6 4.6 0 0 1-3.23-1.4 4.7 4.7 0 0 1-1.34-3.3V8.68A8.66 8.66 0 0 0 8.6-.02 8.57 8.57 0 0 0 .1 7.83c-.1.64-.1 2.3-.1 2.97s.02 2.32.1 2.97a8.54 8.54 0 0 0 13.58 6.15.23.23 0 0 0 .02-.3l-1.8-2.95a.18.18 0 0 0-.25-.03 4.7 4.7 0 0 1-7.68-2.92 35.46 35.46 0 0 1 0-5.8 4.7 4.7 0 0 1 4.65-4.06 4.6 4.6 0 0 1 3.24 1.4 4.7 4.7 0 0 1 1.33 3.3zm39.7 10.94h3.46l5.52-17.27h-3.58l-3.74 12.05L50.6 2.23h-3.34L43.3 14.28 39.6 2.23h-3.58l5.53 17.26H45L48.96 7.5zm49.92 0h4.16l6.73-17.27h-3.6l-5.2 13.2-5.2-13.2h-3.6zm-22.84-6.8a8.14 8.14 0 0 0 8.07 7.24 8.45 8.45 0 0 0 4.8-1.5l.2-.13.63 1.2h2.78a15.16 15.16 0 0 1-.3-2.9V9.7a8.12 8.12 0 0 0-16.18-.66c-.06.6-.06 1.25-.06 1.73v.2c0 .48 0 1.13.06 1.72zm8.07 4.2a5.06 5.06 0 0 1-4.93-4.12v.1l-.03-.24A15.25 15.25 0 0 1 83 11v-.2a15.24 15.24 0 0 1 .07-1.64l.03-.23a5 5 0 0 1 9.83 0l.02.23a15.37 15.37 0 0 1 .07 1.63v.2a15.38 15.38 0 0 1-.07 1.63l-.02.15v.06a4.97 4.97 0 0 1-4.9 4.04zm-9.97-7a8.15 8.15 0 0 0-8-8.1 8 8 0 0 0-7.97 7.97v2.18a8.14 8.14 0 0 0 8.2 8 8.53 8.53 0 0 0 7.3-4.12l-2.77-1.42a5.42 5.42 0 0 1-4.54 2.44 5.26 5.26 0 0 1-5-3.9.8.8 0 0 1 0-.2L78 12.7zM65.2 9.75v-.4a4.88 4.88 0 0 1 9.74-.07v.43zm64.27.15a8.15 8.15 0 0 0-8-8.1 8 8 0 0 0-7.98 7.97v2.18a8.13 8.13 0 0 0 8.2 8 8.53 8.53 0 0 0 7.3-4.12l-2.77-1.42a5.42 5.42 0 0 1-4.53 2.44 5.26 5.26 0 0 1-4.98-3.9.8.8 0 0 1 0-.2l12.67-.03zm-12.87-.14v-.4a4.88 4.88 0 0 1 9.74-.07v.42z"/></svg>